<?xml version="1.0" encoding="iso-8859-1"?>
<!-- Generator: Adobe Illustrator 16.0.0, SVG Export Plug-In . SVG Version: 6.00 Build 0)  -->
<!DOCTYPE svg PUBLIC "-//W3C//DTD SVG 1.1//EN" "http://www.w3.org/Graphics/SVG/1.1/DTD/svg11.dtd">
<svg version="1.1" id="Layer_1" xmlns="http://www.w3.org/2000/svg" xmlns:xlink="http://www.w3.org/1999/xlink" x="0px" y="0px"
	 width="269.291px" height="192.756px" viewBox="0 0 269.291 192.756" style="enable-background:new 0 0 269.291 192.756;"
	 xml:space="preserve">
<rect x="-30.875" y="-24.978" style="display:none;" width="328.947" height="272.849"/>
<g>
	<g>
		<g>
			<path style="fill:#F37321;" d="M118.878,5.946l-0.208,0.124c-7.48,4.43-7.64,4.987-7.745,5.355
				c-0.077,0.27-0.104,1.557-0.104,3.193c0,3.535,0.125,8.699,0.132,8.753c0.086,0.59,0.583,0.875,0.911,1.064
				c0,0,0.095,0.06,0.175,0.111c0.007,0.819,0.031,3.523,0.031,3.523c0.048,4.52,0.158,14.896,0.158,22.255
				c0,3.715-0.028,6.662-0.106,7.7c-0.257,0.105-0.646,0.265-0.646,0.265c-1.221,0.452-1.984,0.773-2.278,1.413
				c-0.147,0.325-0.198,0.756-0.198,1.329c0,0.416,0.027,0.908,0.063,1.488c0,0,0.022,0.495,0.038,0.846
				c-2.051,1.427-17.793,7.178-21.165,7.766c-0.131-1.05-0.191-3.586-0.191-6.77c0-2.302,0.031-4.887,0.082-7.37
				c0.588-0.494,1.602-1.504,1.602-2.669c0-0.062-0.003-0.124-0.009-0.187c-0.129-1.324-1.774-2.132-2.722-2.5
				c-0.208-0.86-4.272-17.663-4.272-17.663l-2.613-10.977L76.899,33.33c0,0-4.516,16.043-5.208,18.501
				c-0.887,0.509-2.085,1.33-2.295,2.199c-0.024,0.102-0.036,0.206-0.036,0.311c0,0.888,0.805,1.828,1.471,2.464
				c0.002,5.159,0.02,53.04,0.137,57.043c-0.811,0.561-4.541,0.719-11.169,0.46l-1.947-0.058c-1.429,0.012-1.558,1.976-1.715,6.415
				c-0.023,0.654-0.051,1.393-0.087,1.91c-0.563-0.105-1.32-0.219-1.965,0.215c-0.454,0.306-0.593,0.798-0.593,1.366
				c0,0.46,0.092,0.971,0.182,1.475c0.035,0.193,0.075,0.439,0.106,0.67c-0.1-0.021-0.225-0.048-0.225-0.048
				c-0.779-0.207-1.958-0.519-2.616,0.406c-0.22,0.31-0.296,0.635-0.296,0.948c0,0.444,0.153,0.866,0.271,1.19
				c0,0,0.03,0.096,0.057,0.185c-1.369,0.188-7.683,0.312-13.453,0.309h-0.887l-0.008,4.392v10.206h167.767v-41.359
				c0,0.023,0.176-6.791,0.176-6.791c0-0.021,0.045-26.061,0.049-27.503c0.08-0.253,2.553-8.023,2.553-8.023l0.053-24.425
				l-0.883-0.008c-18.666-0.171-19.166,0.048-19.379,0.143c-1.035,0.461-5.857,9.076-5.9,9.161c-0.08,0.148-0.17,0.318-0.17,2.539
				c0,1.062,0.02,2.594,0.072,4.816c-0.039,2.302-0.066,4.778-0.066,7.098c0,4.683,0.115,8.729,0.496,9.413
				c0,0.001,0.916,1.258,0.916,1.258c0.545,0.666,1.107,1.355,1.215,2.04c0.104,0.645,0.145,2.267,0.145,3.856
				c0,1.132-0.021,2.208-0.055,2.942c-5.943-1.821-38.939-14.978-41.457-16.577c-0.414-1.661-2.414-9.49-3.006-10.238
				c-0.319-0.399-1.04-0.726-4.29-1.949c-1.068-0.402-2.531-0.953-2.796-1.122c-0.101-0.158-0.479-1.27-0.746-2.34
				c-0.006-0.202-0.714-24.909-0.724-25.251c0.103-0.275,1.021-2.721,1.021-2.721c0.187-0.449,0.258-1.984,0.258-3.592
				c0-1.916-0.103-3.932-0.236-4.329c-0.084-0.245-0.303-0.888-5.441-4.811l-0.239-0.183L118.878,5.946z"/>
			<path style="fill:#FFFFFF;" d="M126.254,5.044l-0.603,0.001l-6.533,0.013l-0.484,0.001l-0.417,0.247
				c-0.018,0.01-1.834,1.087-3.646,2.221c-1.077,0.674-1.946,1.239-2.584,1.679c-1.187,0.82-1.716,1.276-1.916,1.975
				c-0.09,0.315-0.182,0.637-0.125,6.374c0.001,0.054,0.055,5.44,0.128,5.944c0.119,0.817,0.666,1.278,1.078,1.544
				c0.004,0.54,0.014,1.457,0.031,3.04c0.068,6.45,0.264,25.031,0.083,29.337c-0.034,0.013-0.067,0.025-0.098,0.037
				c-1.187,0.44-2.308,0.855-2.776,1.875l-0.003,0.006l-0.002,0.005c-0.343,0.759-0.303,1.724-0.209,3.235
				c0.006,0.1,0.012,0.197,0.017,0.293c-1.235,0.647-4.443,2.04-9.958,4.04c-4.539,1.647-7.786,2.666-9.507,3.119
				c-0.127-2.519-0.121-7.812-0.024-12.623c0.768-0.72,1.737-1.93,1.599-3.355c-0.152-1.561-1.666-2.539-2.852-3.071l-4.164-17.215
				l-1.82-7.652l-1.58-6.643l-1.855,6.572l-1.989,7.046l-5.108,18.148c-1.387,0.847-2.194,1.714-2.403,2.586
				c-0.173,0.726-0.039,1.866,1.411,3.363c0.002,7.852,0.021,49.142,0.123,56.042c-0.644,0.142-2.041,0.327-4.94,0.327
				c-1.553,0-3.118-0.051-4.307-0.095c-0.356-0.013-0.692-0.026-1.002-0.038c-0.875-0.035-1.507-0.059-1.902-0.059h-0.056h-0.008
				h-0.007c-0.46,0.004-1.58,0.186-2.071,1.783c-0.13,0.424-0.227,0.954-0.305,1.669c-0.125,1.149-0.175,2.567-0.219,3.82
				c-0.01,0.295-0.022,0.629-0.036,0.95c-0.62,0.002-1.167,0.16-1.626,0.47c-1.088,0.731-1.058,2.008-0.893,3.112
				c-0.138-0.017-0.279-0.025-0.421-0.025c-1.17,0-1.792,0.629-2.058,1.004c-0.494,0.694-0.512,1.432-0.403,2.033
				c-2.437,0.146-7.623,0.225-12.24,0.225h-0.054h-1.772l-0.003,1.772l-0.006,3.506V143v1.775h1.775h165.99h1.775V143v-40.471
				c0,0.015,0,0.03,0,0.046l0.176-6.814v-0.022v-0.021l0.049-27.343l2.469-7.764l0.084-0.26v-0.274l0.051-23.406l0.004-1.763
				l-1.764-0.016c-0.062-0.001-6.484-0.059-11.811-0.059c-7.307,0-7.49,0.081-7.936,0.277c-0.545,0.243-0.887,0.632-1.83,2.083
				c-0.48,0.74-1.104,1.742-1.85,2.979c-1.186,1.963-2.521,4.254-2.65,4.504c0.004-0.007,0.008-0.014,0.01-0.02
				c-0.248,0.465-0.373,0.742-0.207,7.771c-0.006,0.422-0.062,4.004-0.055,7.657c0.016,8.251,0.311,8.782,0.596,9.295
				c0.279,0.5,0.648,0.951,1.006,1.388c0.447,0.548,0.955,1.17,1.027,1.618c0.131,0.828,0.154,3.523,0.119,5.427
				c-3.186-1.109-10.146-3.738-19.316-7.37c-11.396-4.513-18.598-7.567-20.508-8.544c-0.271-1.105-0.785-3.035-1.229-4.64
				c-1.371-4.952-1.613-5.257-1.869-5.58c-0.491-0.614-1.267-0.946-4.669-2.227c-0.815-0.306-1.877-0.706-2.4-0.933
				c-0.162-0.387-0.398-1.129-0.574-1.819l-0.716-24.991c0.271-0.746,0.754-2.06,0.947-2.518c0.122-0.294,0.346-0.831,0.325-4.369
				c-0.019-3.405-0.215-3.987-0.28-4.178l-0.001-0.004l-0.001-0.003c-0.164-0.482-0.389-1.141-5.741-5.227L126.254,5.044
				L126.254,5.044z M111.705,14.597c0-1.551,0.02-2.741,0.072-2.926c0.168-0.586,7.345-4.837,7.345-4.837l6.533-0.013
				c0,0,4.923,3.759,5.138,4.389c0.114,0.338,0.188,2.23,0.188,4.011c0,1.523-0.056,2.964-0.188,3.283
				c-0.29,0.691-1.094,2.916-1.094,2.916l0.732,25.527c0,0,0.606,2.488,1.092,2.916c0.485,0.43,6.513,2.399,6.929,2.919
				c0.413,0.521,2.745,9.278,2.919,10.208c0.148,0.821,33.32,13.962,41.31,16.669l0,0c0.002,0,0.004,0.001,0.006,0.001l0,0
				c0.918,0.311,1.502,0.484,1.666,0.484c0.025,0,0.041-0.005,0.045-0.015c0.059-0.175,0.102-0.852,0.129-1.75l0,0
				c0,0,0-0.002,0-0.002l0,0c0.018-0.639,0.029-1.388,0.029-2.148c0-1.693-0.049-3.439-0.158-4.121
				c-0.225-1.415-1.656-2.558-2.232-3.59c-0.303-0.545-0.375-5.024-0.375-9.12c0.002-3.642,0.057-6.981,0.057-6.981
				s-0.07-2.96-0.07-5.014c0.002-1.021,0.02-1.817,0.07-1.915c0.152-0.294,4.936-8.515,5.469-8.753
				c0.221-0.097,3.467-0.126,7.219-0.126c5.379,0,11.795,0.059,11.795,0.059l0,0l0,0l-0.051,23.406l-2.553,8.023l-0.049,27.619
				l-0.176,6.814V143l0,0l0,0H37.512v-9.315l0,0l0,0l0.006-3.506c0,0,0.018,0,0.054,0c0.926,0,13.271-0.009,14.091-0.453
				c0.206-0.111,0.279-0.273,0.281-0.465c0.004-0.465-0.416-1.108-0.413-1.647c0.001-0.158,0.038-0.307,0.132-0.44
				c0.135-0.189,0.353-0.257,0.611-0.257c0.303,0,0.662,0.093,1.01,0.184c0.347,0.092,0.683,0.184,0.94,0.184
				c0.149,0,0.272-0.03,0.356-0.11c0.092-0.087,0.127-0.255,0.127-0.472c0-0.671-0.33-1.815-0.331-2.548
				c-0.001-0.297,0.052-0.525,0.204-0.627c0.184-0.124,0.408-0.166,0.644-0.166c0.249,0,0.511,0.047,0.753,0.093
				c0.24,0.047,0.461,0.094,0.629,0.094c0.061,0,0.115-0.006,0.161-0.021c0.413-0.132,0.052-8.38,1.093-8.389
				c0.017,0,0.036,0,0.056,0c0.497,0,1.538,0.048,2.838,0.096c1.294,0.048,2.846,0.096,4.373,0.096c3.426,0,6.73-0.24,6.736-1.263
				c0-0.012,0-0.024-0.001-0.037c-0.128-1.772-0.143-57.603-0.143-57.603s-1.462-1.293-1.474-2.061c0-0.044,0.004-0.087,0.013-0.127
				c0.178-0.74,2.19-1.822,2.19-1.822l5.304-18.845l1.989-7.046l1.822,7.658l4.382,18.116c0,0,2.484,0.816,2.592,1.924
				c0.003,0.035,0.005,0.069,0.005,0.104c-0.002,1.079-1.595,2.237-1.595,2.237s-0.089,3.987-0.09,7.917
				c0,3.605,0.073,7.162,0.359,7.543c0.028,0.039,0.105,0.057,0.226,0.057c2.43,0,22.562-7.32,22.562-8.361
				c0-0.726-0.116-1.838-0.117-2.674c0-0.423,0.029-0.776,0.117-0.973c0.269-0.586,2.478-1.08,2.919-1.459
				c0.144-0.124,0.191-3.713,0.192-8.526c0-9.714-0.194-24.413-0.192-25.672c0-0.042,0-0.068,0-0.08c0-0.004,0-0.009,0-0.013
				c0.006-0.536-1.04-0.711-1.093-1.08C111.794,22.99,111.705,17.949,111.705,14.597L111.705,14.597z M111.149,24.314
				c0-0.015,0-0.029,0.001-0.044C111.15,24.282,111.149,24.296,111.149,24.314L111.149,24.314z M132.517,48.396
				c-0.001,0-0.002-0.001-0.002-0.001C132.515,48.396,132.516,48.396,132.517,48.396L132.517,48.396z M132.875,48.729
				c0-0.001-0.001-0.002-0.002-0.004C132.875,48.727,132.875,48.728,132.875,48.729L132.875,48.729z M88.66,70.989l-0.011-0.015l0,0
				C88.652,70.979,88.656,70.984,88.66,70.989L88.66,70.989z M56.219,121.838c0.003-0.001,0.005-0.002,0.008-0.003l-0.005,0.002
				L56.219,121.838L56.219,121.838z M51.094,128.051h0.001H51.094L51.094,128.051z"/>
		</g>
	</g>
	<g>
		<g>
			<path style="fill:#4D4D4F;" d="M161.232,110.282c0,0,0,22.543,0,24.191c-1.371,0-7.348,0-7.348,0s0,1.783,0,2.676
				c-1.455-0.956-3.031-1.788-4.82-2.361c-3.041-0.973-7.582-1.445-13.884-1.445c-5.892,0-10.677,0.627-14.223,1.863
				c-3.608,1.26-6.486,3.201-8.552,5.769c-0.322,0.399-0.561,0.884-0.842,1.328c-0.811-1.416-1.721-2.677-2.808-3.613
				c-2.502-2.19-5.668-3.651-9.405-4.339c-3.65-0.669-8.51-1.008-14.446-1.008c-3.722,0-7.238,0.281-10.451,0.836
				c-3.262,0.563-5.874,1.378-7.761,2.422c-2.633,1.447-4.686,3.188-6.099,5.175c-0.306,0.429-0.56,0.98-0.837,1.482
				c-1.537-2.039-3.294-3.847-5.359-5.251c-4.565-3.095-11.23-4.664-19.81-4.664c-6.123,0-11.231,0.817-15.186,2.43
				c-2.52,1.037-4.997,2.627-7.366,4.728c-2.382,2.116-4.285,4.536-5.655,7.194c-1.874,3.614-2.824,8.191-2.824,13.602
				c0,5.174,0.783,9.401,2.328,12.566c1.532,3.15,3.683,5.938,6.391,8.283c2.715,2.35,5.997,4.068,9.754,5.11
				c3.714,1.032,8.401,1.556,13.93,1.556c5.765,0,10.604-0.825,14.381-2.453c3.036-1.305,5.653-3.093,7.847-5.275
				c0.76,1.172,1.644,2.28,2.74,3.253c3.348,2.97,8.271,4.476,14.632,4.476c4.733,0,8.955-0.737,12.549-2.191
				c2.254-0.932,4.536-2.435,6.806-4.414c0.141,0.729,0.284,1.37,0.432,1.828c0.249,0.766,0.746,1.811,1.521,3.193l0.254,0.453
				h20.389l-0.618-1.274c-0.166-0.343-0.295-0.646-0.441-0.968c4.219,2.232,10.668,3.373,19.247,3.373
				c6.755,0,12.191-0.861,16.154-2.559c4.02-1.727,7.012-4.094,8.896-7.036c0.467-0.727,0.83-1.471,1.182-2.215
				c0.271,1.442,0.615,2.68,1.055,3.684c1.195,2.731,3.072,4.796,5.574,6.137c2.482,1.338,6.184,1.989,11.312,1.989
				c3.551,0,7.398-0.384,11.432-1.131c0.115,0,18.238,0,18.238,0s0-6.091,0-9.277c2.41,3.264,5.297,5.792,8.664,7.44
				c4.023,1.97,9.576,2.968,16.508,2.968c7.971,0,14.203-1.17,18.525-3.476c4.334-2.317,8.078-6.178,11.125-11.475l0.688-1.192
				l-21.256-2.068l-0.301,0.38c-1.152,1.458-2.227,2.48-3.193,3.038c-1.598,0.885-3.314,1.337-5.09,1.337
				c-2.83,0-5.055-0.986-6.801-3.018c-1.094-1.239-1.818-3.132-2.205-5.571c1.973,0,39.41,0,39.41,0v-3.106
				c0-6.861-1.162-12.536-3.453-16.866c-2.312-4.357-5.723-7.729-10.137-10.022c-4.377-2.275-10.396-3.429-17.887-3.429
				c-9.287,0-16.691,2.59-22.004,7.697c-0.953,0.917-1.805,1.908-2.594,2.936c0-4.986,0-44.173,0-44.173h-21.557
				c0,0,0,32.986,0,34.671c-1.154,0-4.039,0-5.193,0c0-1.686,0-35.235,0-35.235L161.232,110.282z M87.529,146.798
				c2.303,0,3.897,0.409,4.737,1.217c0.745,0.72,1.142,2.044,1.218,3.881c-2.224,0.85-4.357,1.566-6.324,2.096
				c-2.219,0.599-7.063,1.643-14.398,3.104c-6.361,1.256-10.815,3.233-13.236,5.876c-1.085,1.184-1.895,2.563-2.505,4.057
				c-1.13-0.124-12.313-1.354-12.313-1.354l-0.225,0.685c-0.818,2.49-2.049,4.352-3.661,5.531c-1.612,1.174-3.646,1.77-6.044,1.77
				c-2.893,0-5.203-0.978-7.064-2.99c-1.851-2.003-2.789-5.027-2.789-8.988c0-4.48,0.956-7.844,2.841-9.996
				c1.887-2.148,4.292-3.193,7.35-3.193c2.402,0,4.327,0.518,5.72,1.537c1.376,1.01,2.344,2.553,2.878,4.586l0.199,0.756
				l20.504-2.692c0,0-0.372-1.078-0.376-1.091c2.275,0.25,13.64,1.5,13.64,1.5l0.231-0.671c0.71-2.063,1.63-3.47,2.734-4.179
				C82.132,147.282,84.448,146.798,87.529,146.798z M78.733,174.873L78.733,174.873c-0.903-0.808-1.341-1.826-1.341-3.113
				c0-1.101,0.454-2.068,1.389-2.958c0.663-0.63,2.466-1.646,7.289-2.907c2.57-0.637,5.056-1.381,7.446-2.186
				c0,0.907,0,1.905,0,1.905c0,2.272-0.369,4.129-1.097,5.519c-0.715,1.358-1.961,2.538-3.703,3.503
				c-1.762,0.978-3.698,1.473-5.754,1.473C81.072,176.108,79.649,175.692,78.733,174.873z M114.508,161.467
				c1.44,1.287,3.002,2.381,4.79,3.062c2.738,1.045,7.464,2.145,14.448,3.361c5.567,0.978,7.547,1.6,8.229,1.949
				c1.19,0.623,1.749,1.42,1.749,2.503c0,0.97-0.439,1.767-1.344,2.435c-1.312,1.012-3.211,1.52-5.658,1.52
				c-2.244,0-4.04-0.459-5.339-1.364c-1.297-0.903-2.332-2.461-3.076-4.629l-0.227-0.662c0,0-11.892,1.142-13.573,1.304
				C114.508,169.573,114.508,164.019,114.508,161.467z M153.143,155.537c-3.264-1.347-8.27-2.409-14.879-3.158
				c-5.245-0.623-7.303-1.241-8.105-1.651c-0.974-0.49-1.425-1.147-1.425-2.067c0-0.85,0.388-1.563,1.187-2.181
				c0.861-0.663,2.324-1,4.349-1c2.015,0,3.748,0.479,5.151,1.426c0.946,0.658,1.649,1.74,2.078,3.211l0.207,0.708
				c0,0,10.522-1.062,12.18-1.229c0,0.093,0,1.16,0,1.16s5.977,0,7.348,0c0,1.175,0,7.154,0,11.356
				c-0.125-0.198-0.217-0.409-0.352-0.604C159.094,158.931,156.49,156.922,153.143,155.537z M187.984,150.755
				c0,1.591,0,20.769,0,22.11c-0.773,0.139-1.477,0.23-2.027,0.23c-1.305,0-2.174-0.395-2.66-1.207v-0.001
				c-0.189-0.315-0.506-1.239-0.506-3.876c0,0,0-15.651,0-17.257C183.945,150.755,186.83,150.755,187.984,150.755z M228.182,150.147
				l0.006-0.008c1.703-2.249,3.92-3.342,6.775-3.342c2.482,0,4.416,0.717,5.916,2.191c1.35,1.328,2.223,3.569,2.656,6.583
				c-1.75,0-15.553,0-17.295,0C226.592,153.218,227.23,151.373,228.182,150.147z"/>
			<path style="fill:#FFFFFF;" d="M183.678,97.786l-2.584,1.324l-19.781,10.135l-0.967,0.495v1.085v22.761h-5.574h-1.775v1.775v0.13
				c-1.137-0.614-2.361-1.132-3.662-1.548c-3.127-1-7.756-1.487-14.154-1.487c-5.992,0-10.875,0.644-14.515,1.912
				c-3.768,1.316-6.779,3.352-8.952,6.05c-0.037,0.046-0.074,0.093-0.11,0.14c-0.679-0.974-1.437-1.823-2.269-2.54
				c0.002,0.001,0.004,0.003,0.006,0.004c-2.628-2.299-5.936-3.826-9.83-4.543c-3.703-0.678-8.617-1.022-14.606-1.022
				c-3.775,0-7.342,0.286-10.602,0.85c-3.408,0.588-6.038,1.412-8.04,2.518c-2.75,1.514-4.902,3.344-6.392,5.438
				c-0.072,0.1-0.143,0.202-0.213,0.307c-1.399-1.654-2.994-3.093-4.762-4.295c-4.714-3.197-11.547-4.817-20.309-4.817
				c-6.237,0-11.459,0.84-15.52,2.495c-2.616,1.077-5.178,2.72-7.62,4.885c-2.463,2.188-4.433,4.695-5.855,7.451
				c-1.938,3.74-2.922,8.455-2.922,14.009c0,5.312,0.813,9.671,2.417,12.956c1.585,3.259,3.809,6.142,6.608,8.565
				c2.816,2.436,6.214,4.217,10.099,5.294c3.792,1.054,8.558,1.588,14.166,1.588c5.887,0,10.843-0.85,14.733-2.526
				c2.775-1.192,5.234-2.757,7.336-4.667c0.67,0.892,1.442,1.726,2.309,2.494c3.515,3.118,8.636,4.699,15.221,4.699
				c4.848,0,9.182-0.759,12.882-2.256l0.006-0.002l0.007-0.003c1.962-0.812,3.942-2.014,5.912-3.587
				c0.044,0.163,0.089,0.314,0.134,0.455c0.271,0.831,0.791,1.927,1.593,3.355l0.509,0.906h1.039h18.453h2.833l-0.629-1.297
				c4.236,1.63,9.981,2.428,17.401,2.428c6.876,0,12.427-0.885,16.503-2.629c4.186-1.798,7.312-4.279,9.293-7.375
				c0.039-0.061,0.078-0.121,0.115-0.182c0.17,0.551,0.355,1.06,0.561,1.527c1.279,2.919,3.287,5.127,5.969,6.564
				c2.613,1.408,6.453,2.094,11.732,2.094c3.59,0,7.469-0.381,11.537-1.131h17.246h1.773v-1.775v-5.805
				c2.148,2.405,4.619,4.299,7.387,5.653c4.146,2.028,9.832,3.058,16.896,3.058c8.119,0,14.492-1.204,18.945-3.58
				c4.482-2.396,8.344-6.372,11.477-11.814l1.371-2.386l-2.738-0.267l-19.404-1.888l-0.963-0.094l-0.602,0.76
				c-1.084,1.37-2.072,2.318-2.939,2.819c0.008-0.006,0.018-0.011,0.025-0.016c-1.498,0.83-3.025,1.234-4.674,1.234
				c-2.555,0-4.559-0.887-6.127-2.708l-0.008-0.01l-0.006-0.009c-0.83-0.938-1.439-2.309-1.824-4.088h37.484h1.773v-1.775v-2.219
				c0-7.008-1.197-12.822-3.557-17.281c-2.398-4.521-5.934-8.017-10.512-10.395c-4.506-2.341-10.66-3.528-18.295-3.528
				c-9.525,0-17.135,2.673-22.619,7.944c-0.375,0.361-0.74,0.73-1.092,1.109V100.69v-1.775h-1.773h-19.783h-1.775v1.775v32.896
				h-3.418V100.69V97.786L183.678,97.786z M188.871,100.69h19.783v42.939l0,0v1.401l0,0v1.775c0.303-0.508,0.625-1.004,0.967-1.489
				l0,0c0.258-0.368,0.527-0.729,0.807-1.084l0,0c0.705-0.892,1.479-1.743,2.322-2.553c5.164-4.965,12.291-7.449,21.389-7.449
				c7.373,0,13.203,1.106,17.479,3.328c4.271,2.22,7.523,5.437,9.76,9.649c2.23,4.216,3.352,9.701,3.352,16.451v2.219l0,0l0,0
				h-39.564c0.068,0.616,0.156,1.201,0.264,1.756l0,0c0.002,0.007,0.004,0.013,0.004,0.02l0,0c0.443,2.272,1.213,4.025,2.305,5.263
				c1.906,2.219,4.398,3.326,7.473,3.326c1.945,0,3.785-0.486,5.535-1.456c1.064-0.615,2.215-1.699,3.445-3.256l19.404,1.888l0,0
				l0,0c-2.977,5.174-6.566,8.886-10.773,11.135c-4.211,2.247-10.246,3.371-18.109,3.371c-6.83,0-12.201-0.962-16.117-2.878
				c-3.916-1.917-7.158-4.966-9.73-9.143c-0.074-0.121-0.141-0.248-0.209-0.37v1.775l0,0v1.473l0,0v8.011l0,0l0,0h-17.41
				c-4.016,0.75-7.812,1.132-11.373,1.132c-4.928,0-8.562-0.628-10.895-1.885c-2.336-1.251-4.061-3.156-5.18-5.711
				c-0.727-1.659-1.213-4.004-1.467-7.004c-0.418,1.838-1.195,3.643-2.33,5.413c-1.795,2.805-4.629,5.038-8.498,6.7
				c-3.865,1.655-9.137,2.486-15.804,2.486c-9.419,0-16.13-1.341-20.128-4.021c-0.352-0.234-0.681-0.49-1.012-0.744
				c0.179,0.518,0.39,1.068,0.637,1.657l0,0c0.172,0.408,0.361,0.835,0.568,1.282l0,0c0.105,0.226,0.215,0.457,0.329,0.693l0,0l0,0
				H97.64c-0.744-1.325-1.225-2.337-1.451-3.03c-0.224-0.696-0.453-1.785-0.675-3.274c-2.598,2.479-5.179,4.25-7.74,5.31
				c-3.503,1.418-7.577,2.127-12.216,2.127c-6.164,0-10.846-1.416-14.043-4.253c-1.355-1.201-2.405-2.53-3.186-3.97
				c-2.248,2.464-5.026,4.417-8.34,5.841c-3.68,1.586-8.358,2.382-14.03,2.382c-5.482,0-10.045-0.511-13.692-1.523
				c-3.65-1.012-6.786-2.655-9.411-4.926c-2.626-2.274-4.686-4.941-6.175-8.002c-1.494-3.062-2.237-7.121-2.237-12.178l0,0l0,0
				c0-5.283,0.905-9.684,2.725-13.194c1.33-2.579,3.149-4.89,5.455-6.938c2.304-2.043,4.675-3.565,7.112-4.568
				c3.863-1.575,8.81-2.364,14.85-2.364c8.443,0,14.878,1.504,19.311,4.51c1.832,1.245,3.428,2.734,4.804,4.456l0,0
				c0.049,0.062,0.099,0.124,0.147,0.187l0,0c0.362,0.463,0.708,0.942,1.04,1.438c0.253-0.563,0.524-1.09,0.812-1.579l0,0
				c0.039-0.065,0.077-0.13,0.117-0.194l0,0c0.161-0.265,0.328-0.518,0.5-0.759c1.342-1.886,3.28-3.523,5.805-4.913
				c1.813-1.002,4.309-1.774,7.483-2.322c3.172-0.548,6.609-0.823,10.3-0.823c5.929,0,10.688,0.334,14.285,0.993
				c3.595,0.661,6.592,2.042,8.986,4.137c0.88,0.759,1.663,1.686,2.347,2.776l0,0c0.062,0.098,0.122,0.196,0.182,0.297l0,0
				c0.293,0.492,0.568,1.017,0.824,1.572c0.26-0.53,0.553-1.044,0.883-1.54l0,0c0.062-0.095,0.126-0.188,0.192-0.28l0,0
				c0.156-0.223,0.321-0.44,0.494-0.655c1.972-2.45,4.694-4.279,8.153-5.487c3.463-1.207,8.104-1.812,13.931-1.812
				c6.149,0,10.688,0.466,13.613,1.403c1.535,0.491,2.936,1.126,4.203,1.902l0,0c0.113,0.069,0.227,0.14,0.336,0.212l0,0
				c0.502,0.323,0.982,0.67,1.439,1.039v-3.427l0,0l0,0h5.574l0,0l0,0h1.775v-24.536l0,0l0,0l19.781-10.135v32.896l0,0l0,0v1.775
				h1.775l0,0l0,0h3.418l0,0l0,0h1.775V100.69L188.871,100.69L188.871,100.69z M134.269,144.593c-2.241,0-3.868,0.396-4.892,1.185
				c-1.024,0.792-1.531,1.752-1.531,2.883c0,1.26,0.633,2.215,1.909,2.859c1.271,0.647,4.075,1.227,8.409,1.742
				c6.559,0.742,11.44,1.775,14.639,3.097c3.201,1.323,5.65,3.206,7.348,5.656c0.066,0.096,0.131,0.191,0.195,0.288l0,0
				c0.453,0.687,0.84,1.394,1.16,2.118l0,0c0.242,0.546,0.447,1.101,0.615,1.666v-16.22h-7.35v-1.254l-12.422,1.254
				c-0.488-1.673-1.298-2.908-2.434-3.697C138.355,145.117,136.475,144.593,134.269,144.593L134.269,144.593z M160.346,159.408
				c-1.773-1.963-4.074-3.537-6.865-4.689c-3.387-1.399-8.33-2.452-15.117-3.222c-5.381-0.639-7.199-1.251-7.803-1.559
				c-0.868-0.438-0.94-0.889-0.94-1.278c0-0.385,0.096-0.901,0.842-1.479c0.481-0.37,1.533-0.814,3.806-0.814
				c1.861,0,3.384,0.417,4.654,1.274c-0.007-0.004-0.013-0.01-0.02-0.014c0.797,0.554,1.367,1.448,1.743,2.736l0.413,1.417
				l1.469-0.147l10.469-1.058v1.066h1.775h5.574V159.408L160.346,159.408z M234.961,145.91c-3.121,0-5.617,1.231-7.48,3.694
				c-1.193,1.537-1.949,3.82-2.271,6.855h1.775l0,0h0.01l0,0h15.789l0,0h0.012l0,0h1.775c-0.391-3.769-1.412-6.472-3.07-8.103
				C239.842,146.726,237.666,145.91,234.961,145.91L234.961,145.91z M227.27,154.686c0.348-1.721,0.889-3.059,1.613-3.993
				l0.006-0.008l0.006-0.008c1.523-2.014,3.508-2.991,6.066-2.991c2.238,0,3.969,0.634,5.295,1.937
				c1.064,1.048,1.824,2.747,2.266,5.063H227.27L227.27,154.686z M87.528,145.91c-3.273,0-5.728,0.53-7.363,1.58
				c-1.28,0.823-2.313,2.369-3.094,4.637l-14.331-1.575c0.165,0.457,0.335,0.909,0.483,1.389l0,0l0,0l-18.652,2.449
				c-0.59-2.244-1.66-3.938-3.213-5.076c-1.55-1.135-3.631-1.709-6.244-1.709c-3.305,0-5.974,1.17-8.017,3.496
				c-2.043,2.332-3.061,5.856-3.061,10.581c0,4.208,1.007,7.406,3.025,9.591c2.02,2.183,4.59,3.274,7.716,3.274
				c2.602,0,4.793-0.647,6.568-1.94c1.771-1.297,3.099-3.288,3.98-5.971l12.225,1.344c0.575-1.649,1.448-3.121,2.629-4.409
				c2.3-2.51,6.556-4.38,12.755-5.604c7.429-1.48,12.25-2.521,14.456-3.116c2.208-0.596,4.546-1.379,7.012-2.345
				c0-2.439-0.508-4.149-1.522-5.13C91.867,146.4,90.083,145.91,87.528,145.91L87.528,145.91z M78.288,154.046l0.462-1.341
				c0.644-1.87,1.444-3.122,2.376-3.722c1.341-0.861,3.495-1.298,6.403-1.298c2.709,0,3.745,0.606,4.122,0.969
				c0.361,0.35,0.782,1.091,0.926,2.649c-1.984,0.74-3.879,1.355-5.647,1.832c-2.184,0.589-7.009,1.629-14.341,3.089
				c-6.642,1.312-11.13,3.323-13.717,6.146c-1.011,1.103-1.835,2.342-2.46,3.697l-10.891-1.197l-1.431-0.158l-0.449,1.368
				c-0.759,2.312-1.884,4.024-3.343,5.094c-1.475,1.073-3.281,1.598-5.519,1.598c-2.631,0-4.729-0.885-6.413-2.706
				c-1.694-1.832-2.553-4.654-2.553-8.385c0-4.261,0.882-7.427,2.621-9.411c1.708-1.945,3.894-2.892,6.682-2.892
				c2.209,0,3.957,0.46,5.195,1.366c1.224,0.897,2.057,2.236,2.545,4.096l0.398,1.512l1.55-0.203l18.652-2.449l2.086-0.273
				l-0.25-0.81l11.587,1.274L78.288,154.046L78.288,154.046z M188.871,149.867h-6.969v1.775l0,0l0,0v16.37
				c0,2.184,0.211,3.628,0.633,4.332c0.654,1.094,1.793,1.64,3.422,1.64c0.797,0,1.771-0.128,2.914-0.374V149.867L188.871,149.867z
				 M183.678,151.643h3.418v20.481c-0.428,0.057-0.809,0.085-1.139,0.085c-1.434,0-1.758-0.543-1.898-0.774
				c-0.016-0.029-0.381-0.669-0.381-3.422V151.643L183.678,151.643z M113.621,159.472v1.774l0,0v0.774l0,0v8.117l0,0v0.009l0,0
				v1.774l1.767-0.169l0,0l0.008-0.001l0,0l12.073-1.159c0.811,2.363,1.948,4.053,3.408,5.068c1.46,1.019,3.409,1.524,5.846,1.524
				c2.663,0,4.721-0.564,6.186-1.694c1.135-0.839,1.703-1.888,1.703-3.147c0-1.418-0.744-2.516-2.232-3.293
				c-1.065-0.548-3.893-1.229-8.48-2.033c-6.858-1.196-11.618-2.299-14.285-3.317C117.299,162.819,115.303,161.406,113.621,159.472
				L113.621,159.472z M115.396,169.968v-6.512c1.112,0.781,2.31,1.417,3.587,1.902c2.786,1.062,7.566,2.178,14.611,3.407
				c5.957,1.045,7.562,1.65,7.976,1.862c-0.004-0.002-0.008-0.004-0.012-0.006c1.127,0.589,1.278,1.2,1.278,1.721
				c0,0.463-0.111,1.076-0.982,1.721l-0.016,0.01l-0.014,0.012c-1.139,0.878-2.855,1.324-5.102,1.324
				c-2.059,0-3.684-0.405-4.831-1.205c-1.14-0.793-2.062-2.202-2.744-4.188l-0.455-1.325l-1.394,0.134L115.396,169.968
				L115.396,169.968z M94.402,162.488c-2.737,0.965-5.59,1.813-8.558,2.548c-4.044,1.058-6.601,2.102-7.677,3.123
				c-1.11,1.058-1.664,2.259-1.664,3.602c0,1.539,0.545,2.797,1.637,3.773c1.093,0.979,2.701,1.462,4.82,1.462
				c2.214,0,4.276-0.524,6.184-1.584c1.907-1.056,3.259-2.345,4.06-3.867c0.796-1.519,1.198-3.495,1.198-5.931V162.488
				L94.402,162.488z M86.271,166.76c2.175-0.539,4.304-1.143,6.356-1.802v0.656c0,2.129-0.335,3.847-0.995,5.107
				c-0.633,1.201-1.759,2.259-3.348,3.138l-0.001,0.001c-1.65,0.916-3.391,1.361-5.323,1.361c-1.665,0-2.888-0.34-3.636-1.01
				c-0.714-0.639-1.046-1.418-1.046-2.451c0-0.857,0.354-1.593,1.113-2.316c0.386-0.366,1.834-1.366,6.893-2.688
				C86.28,166.757,86.276,166.758,86.271,166.76L86.271,166.76z"/>
		</g>
	</g>
	<g style="display:none;">
		<path style="display:inline;fill:#FFFFFF;" d="M17.961,204.771l-3.515,0.591c-0.12-0.646-0.391-1.133-0.813-1.459
			c-0.423-0.327-0.971-0.491-1.644-0.491c-0.897,0-1.614,0.286-2.146,0.857c-0.535,0.571-0.8,1.524-0.8,2.864
			c0,1.487,0.269,2.541,0.81,3.154c0.542,0.612,1.268,0.92,2.179,0.92c0.68,0,1.237-0.181,1.673-0.546
			c0.433-0.361,0.74-0.987,0.919-1.875l3.514,0.562c-0.365,1.501-1.064,2.633-2.1,3.399c-1.035,0.765-2.423,1.149-4.165,1.149
			c-1.978,0-3.554-0.579-4.73-1.732c-1.175-1.156-1.762-2.756-1.762-4.799c0-2.066,0.591-3.676,1.771-4.825
			c1.179-1.151,2.775-1.728,4.788-1.728c1.646,0,2.956,0.328,3.928,0.977C16.838,202.442,17.537,203.435,17.961,204.771z"/>
		<path style="display:inline;fill:#FFFFFF;" d="M25.609,213.599v-17.276h3.574v17.276H25.609z"/>
		<path style="display:inline;fill:#FFFFFF;" d="M37.811,199.395v-3.072h3.574v3.072H37.811z M37.811,213.599v-12.521h3.574v12.521
			H37.811z"/>
		<path style="display:inline;fill:#FFFFFF;" d="M49.747,201.077h3.308v1.711c1.175-1.317,2.581-1.976,4.208-1.976
			c0.867,0,1.615,0.166,2.252,0.497c0.635,0.33,1.157,0.83,1.565,1.499c0.592-0.669,1.231-1.169,1.917-1.499
			c0.687-0.331,1.42-0.497,2.2-0.497c0.99,0,1.831,0.186,2.517,0.559c0.687,0.375,1.199,0.922,1.539,1.645
			c0.242,0.533,0.368,1.396,0.368,2.59v7.993h-3.574v-7.141c0-1.238-0.123-2.04-0.369-2.401c-0.332-0.469-0.838-0.703-1.524-0.703
			c-0.5,0-0.971,0.141-1.411,0.425c-0.438,0.278-0.756,0.694-0.952,1.238c-0.196,0.547-0.292,1.407-0.292,2.582v6h-3.574v-6.846
			c0-1.216-0.063-2-0.189-2.353c-0.13-0.354-0.325-0.616-0.594-0.789c-0.269-0.172-0.633-0.258-1.093-0.258
			c-0.552,0-1.05,0.137-1.491,0.41c-0.442,0.274-0.76,0.67-0.952,1.189c-0.191,0.519-0.287,1.375-0.287,2.577v6.068h-3.573V201.077z
			"/>
		<path style="display:inline;fill:#FFFFFF;" d="M78.012,213.599v-17.276h3.574v6.234c1.104-1.162,2.417-1.744,3.933-1.744
			c1.652,0,3.018,0.553,4.1,1.656c1.081,1.104,1.623,2.688,1.623,4.755c0,2.138-0.55,3.784-1.651,4.94
			c-1.101,1.153-2.437,1.732-4.009,1.732c-0.773,0-1.537-0.182-2.289-0.545c-0.755-0.361-1.4-0.891-1.943-1.592v1.839H78.012z
			 M81.526,207.082c0,1.293,0.224,2.248,0.669,2.867c0.626,0.879,1.458,1.316,2.498,1.316c0.8,0,1.48-0.31,2.042-0.932
			c0.562-0.625,0.845-1.607,0.845-2.947c0-1.427-0.286-2.455-0.851-3.09c-0.568-0.63-1.292-0.943-2.177-0.943
			c-0.868,0-1.59,0.309-2.166,0.922C81.812,204.893,81.526,205.824,81.526,207.082z"/>
		<path style="display:inline;fill:#FFFFFF;" d="M99.047,199.395v-3.072h3.571v3.072H99.047z M99.047,213.599v-12.521h3.571v12.521
			H99.047z"/>
		<path style="display:inline;fill:#FFFFFF;" d="M123.531,213.599h-3.571v-6.376c0-1.35-0.075-2.222-0.23-2.617
			c-0.152-0.397-0.399-0.703-0.742-0.926c-0.346-0.217-0.76-0.326-1.242-0.326c-0.62,0-1.177,0.156-1.667,0.47
			c-0.494,0.313-0.831,0.728-1.013,1.246c-0.182,0.517-0.275,1.477-0.275,2.87v5.659h-3.572v-12.521h3.336v1.839
			c1.18-1.402,2.659-2.104,4.445-2.104c0.787,0,1.507,0.131,2.158,0.396c0.653,0.263,1.146,0.599,1.479,1.005
			c0.336,0.408,0.57,0.871,0.701,1.391c0.13,0.518,0.194,1.258,0.194,2.227V213.599z"/>
		<path style="display:inline;fill:#FFFFFF;" d="M131.81,214.427l4.076,0.413c0.068,0.463,0.227,0.782,0.475,0.957
			c0.34,0.246,0.879,0.373,1.611,0.373c0.938,0,1.645-0.132,2.112-0.395c0.313-0.176,0.553-0.454,0.716-0.846
			c0.111-0.277,0.164-0.79,0.164-1.533l0.021-1.849c-1.084,1.368-2.441,2.051-4.072,2.051c-1.821,0-3.264-0.71-4.324-2.13
			c-0.834-1.123-1.251-2.521-1.251-4.193c0-2.094,0.547-3.695,1.64-4.801c1.092-1.107,2.449-1.662,4.076-1.662
			c1.674,0,3.058,0.682,4.146,2.043v-1.778h3.339v11.255c0,1.48-0.133,2.586-0.398,3.316c-0.262,0.732-0.633,1.309-1.105,1.727
			c-0.477,0.416-1.113,0.744-1.903,0.979c-0.798,0.237-1.804,0.354-3.017,0.354c-2.291,0-3.917-0.364-4.879-1.094
			c-0.961-0.733-1.439-1.661-1.439-2.785C131.797,214.717,131.8,214.585,131.81,214.427z M135,207.086
			c0,1.322,0.279,2.291,0.837,2.903c0.559,0.616,1.244,0.923,2.062,0.923c0.875,0,1.613-0.314,2.219-0.946
			c0.605-0.628,0.905-1.561,0.905-2.799c0-1.29-0.288-2.249-0.868-2.876c-0.578-0.625-1.308-0.938-2.197-0.938
			c-0.855,0-1.562,0.306-2.121,0.92C135.279,204.888,135,205.824,135,207.086z"/>
		<path style="display:inline;fill:#FFFFFF;" d="M177.037,204.771l-3.514,0.591c-0.121-0.646-0.391-1.133-0.816-1.459
			c-0.42-0.327-0.971-0.491-1.646-0.491c-0.893,0-1.609,0.286-2.145,0.857c-0.529,0.571-0.797,1.524-0.797,2.864
			c0,1.487,0.271,2.541,0.809,3.154c0.543,0.612,1.266,0.92,2.178,0.92c0.684,0,1.242-0.181,1.672-0.546
			c0.436-0.361,0.744-0.987,0.924-1.875l3.512,0.562c-0.363,1.501-1.064,2.633-2.104,3.399c-1.033,0.765-2.42,1.149-4.158,1.149
			c-1.979,0-3.555-0.579-4.732-1.732c-1.176-1.156-1.764-2.756-1.764-4.799c0-2.066,0.594-3.676,1.77-4.825
			c1.184-1.151,2.777-1.728,4.787-1.728c1.648,0,2.957,0.328,3.93,0.977C175.912,202.442,176.611,203.435,177.037,204.771z"/>
		<path style="display:inline;fill:#FFFFFF;" d="M192.541,209.613l3.574,0.562c-0.463,1.213-1.186,2.136-2.178,2.771
			c-0.99,0.634-2.23,0.951-3.719,0.951c-2.354,0-4.096-0.712-5.23-2.137c-0.891-1.136-1.334-2.576-1.334-4.311
			c0-2.076,0.582-3.699,1.756-4.874c1.17-1.176,2.656-1.763,4.445-1.763c2.016,0,3.6,0.617,4.764,1.846
			c1.168,1.231,1.719,3.116,1.672,5.654h-8.979c0.023,0.98,0.314,1.742,0.869,2.285c0.553,0.545,1.242,0.818,2.072,0.818
			c0.561,0,1.033-0.143,1.416-0.428C192.057,210.703,192.344,210.245,192.541,209.613z M192.748,206.275
			c-0.025-0.955-0.295-1.678-0.809-2.178c-0.512-0.496-1.133-0.744-1.863-0.744c-0.789,0-1.432,0.259-1.947,0.784
			c-0.51,0.525-0.764,1.237-0.752,2.138H192.748z"/>
		<path style="display:inline;fill:#FFFFFF;" d="M216.434,213.599h-3.574v-6.376c0-1.35-0.076-2.222-0.232-2.617
			c-0.152-0.397-0.398-0.703-0.742-0.926c-0.344-0.217-0.76-0.326-1.24-0.326c-0.621,0-1.18,0.156-1.668,0.47
			c-0.494,0.313-0.832,0.728-1.014,1.246c-0.184,0.517-0.271,1.477-0.271,2.87v5.659h-3.572v-12.521h3.338v1.839
			c1.172-1.402,2.654-2.104,4.441-2.104c0.785,0,1.506,0.131,2.156,0.396c0.654,0.263,1.145,0.599,1.48,1.005
			c0.338,0.408,0.568,0.871,0.697,1.391c0.135,0.518,0.201,1.258,0.201,2.227V213.599z"/>
		<path style="display:inline;fill:#FFFFFF;" d="M231.264,201.077v2.63h-2.451v5.065c0,1.024,0.021,1.621,0.07,1.79
			c0.045,0.169,0.15,0.309,0.314,0.42c0.162,0.111,0.361,0.165,0.598,0.165c0.328,0,0.801-0.104,1.426-0.316l0.309,2.569
			c-0.828,0.328-1.764,0.496-2.809,0.496c-0.643,0-1.221-0.102-1.736-0.303c-0.514-0.2-0.893-0.459-1.133-0.779
			s-0.406-0.751-0.496-1.294c-0.078-0.387-0.117-1.167-0.117-2.343v-5.471h-1.652v-2.63h1.652v-2.479l3.574-1.948v4.428H231.264z"/>
		<path style="display:inline;fill:#FFFFFF;" d="M242.098,213.599h-3.572v-12.521h3.336v1.78c0.57-0.842,1.082-1.391,1.535-1.652
			s0.969-0.393,1.543-0.393c0.816,0,1.604,0.209,2.354,0.627l-1.105,2.899c-0.605-0.362-1.166-0.544-1.688-0.544
			c-0.5,0-0.93,0.129-1.277,0.383c-0.35,0.254-0.623,0.715-0.822,1.382c-0.201,0.665-0.303,2.06-0.303,4.185V213.599z"/>
		<path style="display:inline;fill:#FFFFFF;" d="M261.633,209.613l3.574,0.562c-0.459,1.213-1.184,2.136-2.176,2.771
			c-0.986,0.634-2.229,0.951-3.717,0.951c-2.355,0-4.1-0.712-5.232-2.137c-0.891-1.136-1.338-2.576-1.338-4.311
			c0-2.076,0.588-3.699,1.76-4.874c1.172-1.176,2.656-1.763,4.445-1.763c2.018,0,3.602,0.617,4.764,1.846
			c1.164,1.231,1.721,3.116,1.668,5.654h-8.977c0.027,0.98,0.318,1.742,0.871,2.285c0.555,0.545,1.244,0.818,2.074,0.818
			c0.559,0,1.033-0.143,1.414-0.428C261.148,210.703,261.438,210.245,261.633,209.613z M261.838,206.275
			c-0.023-0.955-0.291-1.678-0.803-2.178c-0.512-0.496-1.133-0.744-1.867-0.744c-0.785,0-1.436,0.259-1.943,0.784
			c-0.512,0.525-0.762,1.237-0.75,2.138H261.838z"/>
	</g>
	<g>
		<path style="fill:#FFFFFF;" d="M93.052,95.751v7.875h4.375v5.812h-4.375v7.36c0,0.886,0.084,1.472,0.253,1.757
			c0.26,0.443,0.714,0.664,1.364,0.664c0.584,0,1.402-0.17,2.455-0.508l0.584,5.489c-1.964,0.43-3.799,0.645-5.503,0.645
			c-1.978,0-3.435-0.254-4.371-0.762s-1.629-1.278-2.078-2.313c-0.449-1.036-0.673-2.713-0.673-5.029v-7.303h-2.938v-5.812h2.938
			v-3.801L93.052,95.751z"/>
		<path style="fill:#FFFFFF;" d="M101.212,95.751h7.938v10.526c1.082-1.118,2.157-1.917,3.226-2.398s2.333-0.722,3.793-0.722
			c2.164,0,3.868,0.658,5.113,1.974s1.868,3.334,1.868,6.057v13.189h-8v-11.422c0-1.304-0.241-2.227-0.723-2.768
			c-0.482-0.541-1.16-0.812-2.033-0.812c-0.964,0-1.746,0.365-2.345,1.095c-0.6,0.73-0.899,2.041-0.899,3.931v9.975h-7.938V95.751z"
			/>
		<path style="fill:#FFFFFF;" d="M150.924,116.001h-15.938c0.143,1.271,0.488,2.22,1.035,2.843c0.768,0.896,1.77,1.345,3.008,1.345
			c0.781,0,1.523-0.193,2.227-0.58c0.43-0.245,0.891-0.677,1.387-1.296l7.844,0.719c-1.199,2.074-2.646,3.562-4.34,4.462
			c-1.695,0.9-4.125,1.352-7.292,1.352c-2.75,0-4.914-0.388-6.49-1.163c-1.577-0.774-2.883-2.006-3.919-3.692
			s-1.554-3.67-1.554-5.95c0-3.244,1.039-5.869,3.116-7.875c2.077-2.006,4.946-3.009,8.607-3.009c2.969,0,5.313,0.451,7.034,1.351
			c1.719,0.9,3.027,2.206,3.926,3.916s1.35,3.936,1.35,6.677V116.001z M142.83,112.188c-0.156-1.542-0.57-2.646-1.241-3.312
			c-0.67-0.667-1.551-1-2.643-1c-1.262,0-2.271,0.503-3.025,1.509c-0.481,0.627-0.787,1.562-0.917,2.803H142.83z"/>
	</g>
</g>
</svg>
