<?xml version="1.0" encoding="iso-8859-1"?>
<!-- Generator: Adobe Illustrator 16.0.4, SVG Export Plug-In . SVG Version: 6.00 Build 0)  -->
<!DOCTYPE svg PUBLIC "-//W3C//DTD SVG 1.1//EN" "http://www.w3.org/Graphics/SVG/1.1/DTD/svg11.dtd">
<svg version="1.1" id="Layer_2" xmlns="http://www.w3.org/2000/svg" xmlns:xlink="http://www.w3.org/1999/xlink" x="0px" y="0px"
	 width="1024px" height="768px" viewBox="0 0 1024 768" style="enable-background:new 0 0 1024 768;" xml:space="preserve">
<g id="Oath_2_">
	<g>
		<path style="fill:#FF9933;" d="M0,690.062c31.557-0.047,63.115-0.094,94.672-0.14c64.866-0.097,129.732-0.192,194.598-0.288
			c53.465-0.079,106.93-0.158,160.395-0.237c8.49-0.013,16.979-0.025,25.468-0.038c2.453-0.004,4.5-2.044,4.5-4.5
			c0-2.655,0-5.312,0-7.967c-1.5,1.5-3,3-4.5,4.5c2.655,0,5.31,0,7.965,0c2.455,0,4.498-2.047,4.5-4.5
			c0.004-3.982,0.007-7.966,0.011-11.948c-1.5,1.5-3,3-4.5,4.5c2.987,0,5.975,0,8.962,0c2.453,0,4.5-2.047,4.5-4.5
			c0-8.961,0-17.922,0-26.883c-1.5,1.5-3,3-4.5,4.5c15.599,0.003,31.197,0.007,46.796,0.01c2.453,0.001,4.5-2.047,4.5-4.5
			c0.006-50.91,0.011-101.82,0.017-152.731c0.001-7.654,0.002-15.31,0.003-22.965c0-1.173,0-2.346,0-3.519
			c0-4.082-6.677-8.55-9.283-11.155c0,2.121,0,4.242,0,6.363c2.736-2.732,6.713-5.521,8.679-8.876
			c0.872-1.488,1.197-3.513,1.691-5.133c2.758-9.043,5.516-18.085,8.273-27.127c5.131-16.821,10.261-33.641,15.391-50.461
			c-1.446,1.101-2.893,2.203-4.339,3.304c2.987,0.003,5.974,0.007,8.961,0.011c-1.446-1.101-2.893-2.203-4.339-3.304
			c4.125,16.718,8.251,33.435,12.377,50.153c2.232,9.047,4.465,18.094,6.697,27.141c0.447,1.811,0.68,4.035,2.058,5.415
			c2.961,2.963,5.921,5.926,8.882,8.888c0-2.121,0-4.242,0-6.363c-2.602,2.601-9.285,7.072-9.285,11.147c0,3.528,0,7.056,0,10.584
			c0,10.079,0,20.159,0,30.238c0,2.828,2.89,5.245,5.696,4.339c21.573-6.966,43.146-13.932,64.719-20.898
			c1.918-0.619,3.304-2.271,3.304-4.339c0-4.646,0-9.293,0-13.939c-1.5,1.5-3,3-4.5,4.5c2.822,0,5.645,0,8.467,0
			c3.205,0,5.077-2.718,7.158-4.799c2.305-2.306,1.82-5.179,1.821-8.16c0.002-13.072,0.005-26.144,0.008-39.216
			c0.003-15.095,0.006-30.189,0.009-45.285c0-3.843,0.001-7.687,0.002-11.531c0.001-4.447-4.376-7.293-7.293-10.209
			c0.439,1.061,0.879,2.122,1.318,3.182c0-13.607,0-27.215,0-40.823c-0.439,1.061-0.879,2.121-1.318,3.182
			c5.979-5.974,11.957-11.948,17.935-17.922c-1.061,0.439-2.121,0.878-3.182,1.318c11.947,0.003,23.896,0.007,35.843,0.01
			c-1.061-0.439-2.121-0.879-3.182-1.318c5.643,5.642,11.285,11.285,16.928,16.927c-0.439-1.061-0.879-2.122-1.318-3.182
			c-0.004,9.957-0.007,19.914-0.011,29.87c0.439-1.061,0.879-2.121,1.318-3.182c-2.726,2.725-7.791,6.048-7.791,10.254
			c-0.001,3.848-0.001,7.696-0.001,11.543c-0.002,14.612-0.004,29.224-0.006,43.835c-0.001,6.016-0.002,12.031-0.002,18.047
			c-0.001,2.661-0.772,7.22,1.317,9.309c1.871,1.871,3.741,3.741,5.612,5.612c1.426,1.425,4.021,1.941,5.87,2.588
			c5.63,1.967,11.259,3.934,16.889,5.9c-1.048-1.047-2.096-2.095-3.143-3.143c3.887,11.346,7.773,22.692,11.66,34.038
			c1.887,5.508,12.527,7.525,17.35,9.417c28.693,11.252,57.386,22.504,86.078,33.756c8.151,3.196,16.303,6.393,24.454,9.589
			c2.774,1.089,5.696-1.646,5.696-4.339c0-5.62,0-11.239,0-16.859c0-5.045-5.988-8.915-9.284-12.21
			c0.439,1.061,0.879,2.121,1.318,3.182c0.003-26.22,0.007-52.438,0.01-78.658c-0.439,1.061-0.879,2.121-1.318,3.182
			c10.289-10.289,20.578-20.578,30.867-30.866c-1.061,0.439-2.121,0.878-3.182,1.318c18.586,0.003,37.172,0.006,55.758,0.01
			c-1.5-1.5-3-3-4.5-4.5c-0.003,25.046-0.007,50.092-0.01,75.138c0,1.569-0.001,3.139-0.001,4.707c0,0.263,0,0.525,0,0.788
			c0-2.252-0.278-0.008-0.64,0.954c-2.521,6.722-5.041,13.443-7.562,20.164c-1.442,3.847-0.762,8.393-0.763,12.432
			c-0.002,7.481-0.004,14.962-0.005,22.442c-0.001,0.924-0.001,1.847-0.001,2.771c-0.001,2.453,2.047,4.5,4.5,4.5
			c20.038,0,40.076,0,60.114,0c5.804,0,5.804-9,0-9c-20.038,0-40.076,0-60.114,0c1.5,1.5,3,3,4.5,4.5
			c0.003-11.566,0.005-23.132,0.008-34.698c0,1.176-0.189,1.124,0.264-0.087c0.465-1.238,0.93-2.477,1.394-3.715
			c1.464-3.903,2.928-7.806,4.391-11.709c1.261-3.36,2.914-6.531,2.914-10.15c0.004-25.907,0.007-51.814,0.011-77.723
			c0-0.438,0-0.876,0-1.314c0-2.454-2.047-4.5-4.5-4.5c-12.304-0.002-24.607-0.004-36.911-0.006
			c-5.899-0.001-11.798-0.002-17.697-0.003c-3.911,0-5.928,2.914-8.504,5.491c-8.898,8.898-17.797,17.796-26.694,26.694
			c-2.27,2.269-1.319,7.743-1.319,10.597c-0.001,6.953-0.002,13.906-0.003,20.859c-0.001,13.666-0.003,27.332-0.005,40.998
			c0,3.077-0.001,6.153-0.001,9.23c0,4.217,6.582,8.601,9.284,11.302c-0.439-1.061-0.879-2.121-1.318-3.182
			c0,5.975,0,11.948,0,17.923c1.898-1.446,3.798-2.893,5.696-4.339c-41.487-16.27-82.974-32.539-124.461-48.808
			c1.048,1.047,2.096,2.095,3.143,3.143c-3.919-11.441-7.839-22.882-11.758-34.323c-1.708-4.987-10.666-6.235-15.059-7.77
			c-2.901-1.014-5.804-2.028-8.706-3.042c-1.103-0.386,2.604,1.917,1.343,0.656c-0.576-0.576-1.153-1.152-1.729-1.729
			c-1.19-1.19-2.381-2.381-3.572-3.571c0.439,1.061,0.879,2.121,1.318,3.182c0.003-26.718,0.007-53.436,0.01-80.153
			c-0.439,1.061-0.879,2.121-1.318,3.182c2.038-2.038,4.076-4.076,6.114-6.113c1.823-1.823,1.677-3.808,1.678-6.144
			c0.003-7.534,0.006-15.067,0.008-22.6c0.001-1.823,0.336-4.065-0.159-5.863c-0.614-2.235-3.384-4.212-4.933-5.761
			c-4.384-4.384-8.768-8.768-13.152-13.152c-1.609-1.609-3.871-1.318-5.932-1.319c-3.55-0.001-7.101-0.002-10.65-0.003
			c-7.056-0.002-14.112-0.004-21.168-0.006c-4.877-0.001-8.12,4.979-11.317,8.174c-2.667,2.666-5.334,5.331-8.001,7.996
			c-1.691,1.69-4.391,3.62-4.391,6.252c0,9.461,0,18.921,0,28.382c0,4.048,0,8.096,0,12.145c0,3.784,4.858,7.019,7.293,9.453
			c-0.439-1.061-0.879-2.122-1.318-3.182c-0.007,33.853-0.013,67.706-0.02,101.56c0.439-1.061,0.879-2.121,1.318-3.182
			c-1.328,1.327-2.655,2.655-3.982,3.983c1.061-0.439,2.121-0.879,3.182-1.318c-2.987,0-5.976,0-8.963,0c-2.453,0-4.5,2.047-4.5,4.5
			c0,4.646,0,9.293,0,13.939c1.102-1.446,2.202-2.893,3.304-4.339c-21.573,6.966-43.146,13.932-64.719,20.898
			c1.898,1.446,3.798,2.893,5.696,4.339c0-13.607,0-27.215,0-40.822c-0.439,1.061-0.879,2.121-1.318,3.182
			c2.656-2.655,5.312-5.311,7.967-7.966c1.734-1.733,1.733-4.629,0-6.363c-2.892-2.895-5.784-5.789-8.676-8.684
			c-0.167-0.166,1.196,2.989,0.635,0.714c-0.269-1.089-0.537-2.178-0.807-3.267c-2.237-9.067-4.476-18.136-6.713-27.204
			c-4.046-16.395-8.092-32.79-12.139-49.185c-0.478-1.938-2.378-3.301-4.339-3.304c-2.987-0.003-5.974-0.007-8.961-0.011
			c-2.043-0.002-3.753,1.383-4.339,3.304c-4.938,16.186-9.874,32.372-14.811,48.557c-2.803,9.19-5.606,18.381-8.409,27.57
			c-0.555,1.819-1.109,3.639-1.664,5.457c0.396-1.301,1.734-2.52,0.481-1.268c-0.993,0.992-1.986,1.983-2.979,2.976
			c-1.446,1.444-2.893,2.889-4.339,4.334c-1.735,1.732-1.733,4.631,0,6.363c2.654,2.655,5.31,5.311,7.965,7.966
			c-0.439-1.061-0.879-2.121-1.318-3.182c-0.006,50.91-0.011,101.82-0.017,152.731c-0.001,8.83-0.002,17.661-0.003,26.491
			c1.5-1.5,3-3,4.5-4.5c-15.599-0.003-31.197-0.007-46.796-0.01c-2.453-0.001-4.5,2.047-4.5,4.5c0,8.961,0,17.922,0,26.883
			c1.5-1.5,3-3,4.5-4.5c-2.987,0-5.975,0-8.962,0c-2.455,0-4.498,2.047-4.5,4.5c-0.004,3.982-0.007,7.966-0.011,11.948
			c1.5-1.5,3-3,4.5-4.5c-2.655,0-5.31,0-7.965,0c-2.453,0-4.5,2.047-4.5,4.5c0,2.655,0,5.312,0,7.967c1.5-1.5,3-3,4.5-4.5
			c-31.557,0.047-63.115,0.094-94.672,0.14c-64.866,0.097-129.732,0.192-194.598,0.288c-53.465,0.079-106.93,0.158-160.395,0.237
			c-8.49,0.013-16.979,0.025-25.468,0.038C-5.803,681.07-5.804,690.07,0,690.062L0,690.062z"/>
	</g>
</g>
</svg>
